<?xml version="1.0" encoding="UTF-8" standalone="no"?>
<svg
   xmlns:dc="http://purl.org/dc/elements/1.1/"
   xmlns:cc="http://creativecommons.org/ns#"
   xmlns:rdf="http://www.w3.org/1999/02/22-rdf-syntax-ns#"
   xmlns:svg="http://www.w3.org/2000/svg"
   xmlns="http://www.w3.org/2000/svg"
   xmlns:sodipodi="http://sodipodi.sourceforge.net/DTD/sodipodi-0.dtd"
   xmlns:inkscape="http://www.inkscape.org/namespaces/inkscape"
   version="1.1"
   x="0"
   y="0"
   width="864"
   height="864"
   id="svg2"
   inkscape:version="0.48.3.1 r9886"
   sodipodi:docname="ic_launcher_dice.svg"
   inkscape:export-filename="/home/mike/work/GameHelper/res/drawable-xhdpi/ic_launcher_dice.png"
   inkscape:export-xdpi="10"
   inkscape:export-ydpi="10">
  <metadata
     id="metadata39">
    <rdf:RDF>
      <cc:Work
         rdf:about="">
        <dc:format>image/svg+xml</dc:format>
        <dc:type
           rdf:resource="http://purl.org/dc/dcmitype/StillImage" />
        <dc:title></dc:title>
      </cc:Work>
    </rdf:RDF>
  </metadata>
  <sodipodi:namedview
     pagecolor="#ffffff"
     bordercolor="#666666"
     borderopacity="1"
     objecttolerance="10"
     gridtolerance="10"
     guidetolerance="10"
     inkscape:pageopacity="0"
     inkscape:pageshadow="2"
     inkscape:window-width="1855"
     inkscape:window-height="1176"
     id="namedview37"
     showgrid="false"
     showguides="true"
     inkscape:guide-bbox="true"
     inkscape:zoom="0.65186406"
     inkscape:cx="410.55952"
     inkscape:cy="455.12802"
     inkscape:window-x="65"
     inkscape:window-y="24"
     inkscape:window-maximized="1"
     inkscape:current-layer="svg2">
    <sodipodi:guide
       orientation="0,1"
       position="112.81356,73.762712"
       id="guide3016" />
    <sodipodi:guide
       orientation="1,0"
       position="71.59322,826.57627"
       id="guide3018" />
    <sodipodi:guide
       orientation="1,0"
       position="791.86441,835.25424"
       id="guide3020" />
    <sodipodi:guide
       orientation="0,1"
       position="8.6779661,791.86441"
       id="guide3022" />
  </sodipodi:namedview>
  <defs
     id="defs4" />
  <g
     id="g3051"
     transform="matrix(1.099218,0,0,1.099218,-86.047079,-8.0793791)">
    <g
       id="g3674"
       transform="matrix(1.1820585,0,0,1.1820585,168.11093,-343.9362)">
      <path
         inkscape:connector-curvature="0"
         style="fill:#404040;fill-opacity:1;fill-rule:evenodd;stroke:#404040;stroke-width:2;stroke-linecap:round;stroke-linejoin:round;stroke-miterlimit:4;stroke-opacity:1;stroke-dasharray:none"
         id="path3586"
         d="M 245,341.5 C 252.5,329 270,314 282.5,314 l 275,155 c 5,5 17.5,37.5 7.5,50 L 292.5,679 c -7.5,2.5 -40,0 -50,-25 L 245,341.5 z" />
      <g
         style="overflow:visible"
         id="g3515"
         transform="matrix(0.1910977,-0.3317217,0.1910977,0.3317217,152.64427,500.07482)">
        <path
           inkscape:connector-curvature="0"
           style="fill:#ffffff;fill-opacity:1;stroke:#000000;stroke-width:7"
           id="path3491"
           d="M 71.459473,553.5 C 34.080566,553.5 3.5,522.91895 3.5,485.54004 L 3.5,71.459473 C 3.5,34.082031 34.080566,3.5 71.459473,3.5 l 414.080567,0 C 522.91797,3.5 553.5,34.082031 553.5,71.459473 l 0,414.080567 C 553.5,522.91895 522.91797,553.5 485.54004,553.5 l -414.080567,0 z" />
        <circle
           sodipodi:ry="57.115234"
           sodipodi:rx="57.115234"
           sodipodi:cy="278.5"
           sodipodi:cx="278.5"
           d="m 335.61523,278.5 c 0,31.54387 -25.57136,57.11523 -57.11523,57.11523 -31.54387,0 -57.11523,-25.57136 -57.11523,-57.11523 0,-31.54387 25.57136,-57.11523 57.11523,-57.11523 31.54387,0 57.11523,25.57136 57.11523,57.11523 z"
           style="fill:#404040;fill-opacity:1;stroke:#000000;stroke-width:5;stroke-opacity:1"
           id="circle3493"
           r="57.115234"
           cy="278.5"
           cx="278.5" />
      </g>
      <g
         style="overflow:visible"
         id="g3558"
         transform="matrix(-0.3828283,3.653872e-4,0.1917306,-0.3313563,472.998,680.25529)">
        <path
           inkscape:connector-curvature="0"
           style="fill:#ffffff;fill-opacity:1;stroke:#000000;stroke-width:7"
           id="path3566"
           d="M 71.459473,553.5 C 34.080566,553.5 3.5,522.91895 3.5,485.54004 L 3.5,71.459473 C 3.5,34.082031 34.080566,3.5 71.459473,3.5 l 414.080567,0 C 522.91797,3.5 553.5,34.082031 553.5,71.459473 l 0,414.080567 C 553.5,522.91895 522.91797,553.5 485.54004,553.5 l -414.080567,0 z" />
        <circle
           sodipodi:ry="57.115234"
           sodipodi:rx="57.115234"
           sodipodi:cy="439.97461"
           sodipodi:cx="117.02637"
           d="m 174.1416,439.97461 c 0,31.54387 -25.57136,57.11523 -57.11523,57.11523 -31.543876,0 -57.115237,-25.57136 -57.115237,-57.11523 0,-31.54387 25.571361,-57.11524 57.115237,-57.11524 31.54387,0 57.11523,25.57137 57.11523,57.11524 z"
           style="fill:#404040;fill-opacity:1;stroke:#000000;stroke-width:5;stroke-opacity:1"
           id="circle3560"
           r="57.115234"
           cy="439.97461"
           cx="117.02637" />
        <circle
           sodipodi:ry="57.115234"
           sodipodi:rx="57.115234"
           sodipodi:cy="439.97461"
           sodipodi:cx="439.97461"
           d="m 497.08984,439.97461 c 0,31.54387 -25.57136,57.11523 -57.11523,57.11523 -31.54387,0 -57.11524,-25.57136 -57.11524,-57.11523 0,-31.54387 25.57137,-57.11524 57.11524,-57.11524 31.54387,0 57.11523,25.57137 57.11523,57.11524 z"
           style="fill:#404040;fill-opacity:1;stroke:#000000;stroke-width:5;stroke-opacity:1"
           id="circle3562"
           r="57.115234"
           cy="439.97461"
           cx="439.97461" />
        <circle
           sodipodi:ry="57.114746"
           sodipodi:rx="57.114746"
           sodipodi:cy="117.02588"
           sodipodi:cx="439.97314"
           d="m 497.08789,117.02588 c 0,31.5436 -25.57114,57.11474 -57.11475,57.11474 -31.5436,0 -57.11474,-25.57114 -57.11474,-57.11474 0,-31.543604 25.57114,-57.114747 57.11474,-57.114747 31.54361,0 57.11475,25.571143 57.11475,57.114747 z"
           style="fill:#404040;fill-opacity:1;stroke:#000000;stroke-width:5;stroke-opacity:1"
           id="circle3564"
           r="57.114746"
           cy="117.02588"
           cx="439.97314" />
        <circle
           sodipodi:ry="57.115234"
           sodipodi:rx="57.115234"
           sodipodi:cy="278.5"
           sodipodi:cx="278.5"
           d="m 335.61523,278.5 c 0,31.54387 -25.57136,57.11523 -57.11523,57.11523 -31.54387,0 -57.11523,-25.57136 -57.11523,-57.11523 0,-31.54387 25.57136,-57.11523 57.11523,-57.11523 31.54387,0 57.11523,25.57136 57.11523,57.11523 z"
           style="fill:#404040;fill-opacity:1;stroke:#000000;stroke-width:5;stroke-opacity:1"
           id="circle3568"
           r="57.115234"
           cy="278.5"
           cx="278.5" />
        <circle
           sodipodi:ry="57.115479"
           sodipodi:rx="57.115479"
           sodipodi:cy="117.02563"
           sodipodi:cx="117.02588"
           d="m 174.14136,117.02563 c 0,31.544 -25.57147,57.11548 -57.11548,57.11548 -31.544009,0 -57.11548,-25.57148 -57.11548,-57.11548 0,-31.544011 25.571471,-57.115481 57.11548,-57.115481 31.54401,0 57.11548,25.57147 57.11548,57.115481 z"
           style="fill:#404040;fill-opacity:1;stroke:#000000;stroke-width:5;stroke-opacity:1"
           id="circle3570"
           r="57.115479"
           cy="117.02563"
           cx="117.02588" />
      </g>
      <g
         style="overflow:visible"
         id="g3572"
         transform="matrix(0.1917306,0.3313563,-0.3828283,-3.653872e-4,468.80258,313.31549)">
        <path
           inkscape:connector-curvature="0"
           style="fill:#ffffff;fill-opacity:1;stroke:#000000;stroke-width:7"
           id="path3580"
           d="M 71.459473,553.5 C 34.080566,553.5 3.5,522.91895 3.5,485.54004 L 3.5,71.459473 C 3.5,34.082031 34.080566,3.5 71.459473,3.5 l 414.080567,0 C 522.91797,3.5 553.5,34.082031 553.5,71.459473 l 0,414.080567 C 553.5,522.91895 522.91797,553.5 485.54004,553.5 l -414.080567,0 z" />
        <circle
           sodipodi:ry="57.115234"
           sodipodi:rx="57.115234"
           sodipodi:cy="439.97461"
           sodipodi:cx="117.02637"
           d="m 174.1416,439.97461 c 0,31.54387 -25.57136,57.11523 -57.11523,57.11523 -31.543876,0 -57.115237,-25.57136 -57.115237,-57.11523 0,-31.54387 25.571361,-57.11524 57.115237,-57.11524 31.54387,0 57.11523,25.57137 57.11523,57.11524 z"
           style="fill:#404040;fill-opacity:1;stroke:#000000;stroke-width:5;stroke-opacity:1"
           id="circle3574"
           r="57.115234"
           cy="439.97461"
           cx="117.02637" />
        <circle
           sodipodi:ry="57.115234"
           sodipodi:rx="57.115234"
           sodipodi:cy="439.97461"
           sodipodi:cx="439.97461"
           d="m 497.08984,439.97461 c 0,31.54387 -25.57136,57.11523 -57.11523,57.11523 -31.54387,0 -57.11524,-25.57136 -57.11524,-57.11523 0,-31.54387 25.57137,-57.11524 57.11524,-57.11524 31.54387,0 57.11523,25.57137 57.11523,57.11524 z"
           style="fill:#404040;fill-opacity:1;stroke:#000000;stroke-width:5;stroke-opacity:1"
           id="circle3576"
           r="57.115234"
           cy="439.97461"
           cx="439.97461" />
        <circle
           sodipodi:ry="57.114746"
           sodipodi:rx="57.114746"
           sodipodi:cy="117.02588"
           sodipodi:cx="439.97314"
           d="m 497.08789,117.02588 c 0,31.5436 -25.57114,57.11474 -57.11475,57.11474 -31.5436,0 -57.11474,-25.57114 -57.11474,-57.11474 0,-31.543604 25.57114,-57.114747 57.11474,-57.114747 31.54361,0 57.11475,25.571143 57.11475,57.114747 z"
           style="fill:#404040;fill-opacity:1;stroke:#000000;stroke-width:5;stroke-opacity:1"
           id="circle3578"
           r="57.114746"
           cy="117.02588"
           cx="439.97314" />
        <circle
           sodipodi:ry="57.115479"
           sodipodi:rx="57.115479"
           sodipodi:cy="117.02563"
           sodipodi:cx="117.02588"
           d="m 174.14136,117.02563 c 0,31.544 -25.57147,57.11548 -57.11548,57.11548 -31.544009,0 -57.11548,-25.57148 -57.11548,-57.11548 0,-31.544011 25.571471,-57.115481 57.11548,-57.115481 31.54401,0 57.11548,25.57147 57.11548,57.115481 z"
           style="fill:#404040;fill-opacity:1;stroke:#000000;stroke-width:5;stroke-opacity:1"
           id="circle3584"
           r="57.115479"
           cy="117.02563"
           cx="117.02588" />
      </g>
    </g>
    <path
       inkscape:connector-curvature="0"
       id="path3032"
       d="m 614.12564,237.97511 c -11.9725,-4.15904 -23.00838,-12.47113 -29.23693,-22.02088 -11.11886,-17.0477 -95.93595,-164.918465 -97.48274,-169.95215 -2.14201,-6.970723 1.66707,-12.784108 9.8689,-15.061839 7.83966,-2.177148 184.7531,-2.312867 197.94781,-0.151855 12.66826,2.074794 23.24401,7.487063 31.93997,16.345658 4.97199,5.064987 21.93949,32.87381 54.94939,90.059046 26.26597,45.50226 48.20572,84.52201 48.75501,86.71057 1.58354,6.30935 -0.63448,11.8573 -5.81055,14.53395 -4.12458,2.13292 -18.36708,2.46487 -103.78483,2.419 -89.70923,-0.0482 -99.76858,-0.31869 -107.14603,-2.8815 z m 32.81904,-18.12177 c 19.61796,-11.96223 -7.80549,-44.89244 -37.38529,-44.89244 -8.54912,0 -9.98969,0.5032 -13.66173,4.77219 -3.30288,3.83983 -3.94389,5.9724 -3.28092,10.91523 1.53151,11.41827 13.70417,23.5636 29.20845,29.14288 11.02231,3.96642 18.68542,3.9854 25.11949,0.0622 l 0,-6e-5 z m 145.37074,0.76207 c 5.35506,-2.76921 6.62994,-5.39521 6.62994,-13.65653 0,-11.91901 -14.167,-25.32724 -32.34359,-30.61132 -16.06504,-4.67023 -27.90601,0.63842 -27.90601,12.51107 0,20.09123 35.50934,41.12198 53.61966,31.75678 z M 575.98426,91.225227 c 5.66651,-5.666511 5.93524,-9.695931 1.28702,-19.297878 C 566.58813,49.85891 524.09892,39.533601 519.49263,57.88655 c -3.99903,15.933386 20.9657,38.098518 42.9106,38.098518 7.57858,0 9.49169,-0.670501 13.58103,-4.759841 z m 145.57607,1.096014 c 8.42446,-7.322919 4.99811,-20.657615 -8.12705,-31.628897 -9.69816,-8.10666 -19.05249,-11.727788 -30.58313,-11.838952 -7.91819,-0.07634 -10.08045,0.552333 -13.43402,3.90592 -14.32364,14.323628 11.81714,42.900563 39.47112,43.149596 6.50889,0.05859 9.42949,-0.768189 12.67308,-3.587667 l 0,0 z"
       style="fill:#ffffff" />
    <g
       id="g3027">
      <path
         style="fill:#ffffff"
         d="m 490.53852,415.14314 c -2.59395,-2.50465 -17.7583,-12.06813 -33.69854,-21.25219 l -28.98223,-16.69831 -30.12971,-52.26918 c -16.57133,-28.74806 -31.37981,-55.1983 -32.90773,-58.77831 -1.77664,-4.16282 -2.79593,-10.94535 -2.8277,-18.81597 -0.042,-10.40983 0.71701,-13.92383 4.92421,-22.79715 7.86917,-16.59671 94.70453,-166.389134 98.94455,-170.680971 5.21022,-5.273907 11.55375,-4.974232 17.23464,0.814184 5.90476,6.016529 97.43581,164.883367 101.2065,175.660147 3.4297,9.80221 3.73214,22.1401 0.78292,31.93958 -1.95808,6.50622 -83.79104,151.07887 -88.054,155.5632 -1.32171,1.39037 -2.98421,0.70288 -6.49291,-2.68503 l 0,0 z m -7.83698,-137.7027 c 7.22866,-5.06317 10.79537,-14.93627 10.84386,-30.0172 0.0551,-17.13208 -4.18326,-27.48587 -12.95533,-31.64851 -14.2241,-6.74977 -25.63826,7.34015 -25.63826,31.64851 0,13.52294 2.74742,22.02787 9.2004,28.48086 4.77081,4.7708 12.96279,5.4493 18.54933,1.53634 z"
         id="path3030"
         inkscape:connector-curvature="0" />
      <path
         style="fill:#ffffff"
         d="m 513.5789,450.15723 c -0.69376,-6.15501 -4.60217,-14.4195 -11.176,-23.63214 -1.38948,-1.94722 7.54133,-18.58705 42.77052,-79.68969 28.20136,-48.91334 46.94734,-79.70168 51.12888,-83.97389 3.6312,-3.70994 10.95885,-8.88445 16.28367,-11.4989 l 9.68151,-4.75355 103.63718,0 c 101.30776,0 103.71799,0.0731 107.23152,3.25257 7.23195,6.54431 5.32106,10.66584 -46.05496,99.33459 -26.4652,45.6757 -50.39018,85.76114 -53.16662,89.07875 -3.05771,3.6537 -9.6912,8.25862 -16.82422,11.67925 l -11.77616,5.64723 -95.46535,0.84715 -95.46536,0.84712 -0.80461,-7.13849 0,0 z m 44.64015,-15.28937 c 11.34891,-4.94518 20.20295,-12.37635 23.93733,-20.09055 4.64823,-9.60195 4.3795,-13.63137 -1.28701,-19.29789 -6.60583,-6.60583 -18.11809,-6.65008 -31.87843,-0.12254 -21.67396,10.28154 -31.70445,30.34351 -19.84878,39.69951 4.92562,3.8871 19.94705,3.78969 29.07689,-0.18853 l 0,0 z m 147.20167,-0.79826 c 11.11665,-5.17645 20.15303,-13.41069 23.82381,-21.709 5.5797,-12.61366 -0.751,-21.64102 -15.17642,-21.64102 -27.50422,0 -54.09214,28.90052 -39.76688,43.22575 5.51425,5.51427 19.42496,5.56982 31.11949,0.12425 l 0,2e-5 z m -37.55895,-62.5283 c 23.76286,-9.76502 35.48531,-34.06109 20.23813,-41.94572 -10.25345,-5.30227 -28.24915,-1.0385 -41.52254,9.83805 -8.51394,6.97653 -12.42279,13.74909 -12.42279,21.524 0,13.50771 15.07391,18.24075 33.7072,10.58367 z m -33.74061,-64.50068 c 11.31408,-5.73328 18.25096,-12.00954 21.7238,-19.655 3.97322,-8.74702 3.81477,-12.85033 -0.69886,-18.09774 -13.62493,-15.83992 -58.11832,6.39849 -58.11832,29.04834 0,5.08185 5.46948,12.13433 10.20974,13.16467 7.05879,1.53429 18.94586,-0.4379 26.88364,-4.46027 l 0,0 z m 146.73954,-0.50823 c 29.83693,-14.31353 32.21134,-44.64035 3.31147,-42.29482 -20.52287,1.66564 -40.59132,18.44141 -40.59132,33.93138 0,6.02933 4.52239,11.705 10.5844,13.28358 5.92114,1.5419 17.78205,-0.64415 26.69545,-4.92014 z"
         id="path3034"
         inkscape:connector-curvature="0" />
    </g>
  </g>
  <g
     id="g3031"
     transform="matrix(1.099218,0,0,1.099218,-57.387259,-28.176712)">
    <g
       id="g3658"
       transform="matrix(1.1820585,0,0,1.1820585,-645.7576,280.89814)">
      <g
         id="g3634"
         transform="matrix(0,1,-1,0,1481.1182,-519.93236)">
        <path
           inkscape:connector-curvature="0"
           style="fill:#404040;fill-opacity:1;fill-rule:evenodd;stroke:#404040;stroke-width:2;stroke-linecap:round;stroke-linejoin:round;stroke-miterlimit:4;stroke-opacity:1;stroke-dasharray:none"
           id="path3590"
           d="m 628.93236,528.61822 c 7.5,-12.5 25,-27.5 37.5,-27.5 l 278.6825,160.82693 c 4.11647,6.65796 12.40666,21.07873 5.29642,41.57018 L 676.43236,866.11822 c -7.5,2.5 -40,0 -50,-25 l 2.5,-312.5 z" />
        <g
           style="overflow:visible"
           id="g3592"
           transform="matrix(0.1910977,-0.3317217,0.1910977,0.3317217,536.57663,687.19304)">
          <path
             inkscape:connector-curvature="0"
             style="fill:#ffffff;fill-opacity:1;stroke:#000000;stroke-width:7"
             id="path3594"
             d="M 71.459473,553.5 C 34.080566,553.5 3.5,522.91895 3.5,485.54004 L 3.5,71.459473 C 3.5,34.082031 34.080566,3.5 71.459473,3.5 l 414.080567,0 C 522.91797,3.5 553.5,34.082031 553.5,71.459473 l 0,414.080567 C 553.5,522.91895 522.91797,553.5 485.54004,553.5 l -414.080567,0 z" />
          <circle
             sodipodi:ry="57.115234"
             sodipodi:rx="57.115234"
             sodipodi:cy="278.5"
             sodipodi:cx="278.5"
             d="m 335.61523,278.5 c 0,31.54387 -25.57136,57.11523 -57.11523,57.11523 -31.54387,0 -57.11523,-25.57136 -57.11523,-57.11523 0,-31.54387 25.57136,-57.11523 57.11523,-57.11523 31.54387,0 57.11523,25.57136 57.11523,57.11523 z"
             style="fill:#404040;fill-opacity:1;stroke:#000000;stroke-width:5;stroke-opacity:1"
             id="circle3602"
             r="57.115234"
             cy="278.5"
             cx="278.5" />
        </g>
        <g
           style="overflow:visible"
           id="g3606"
           transform="matrix(-0.3828283,3.653872e-4,0.1917306,-0.3313563,856.93036,867.37351)">
          <path
             inkscape:connector-curvature="0"
             style="fill:#ffffff;fill-opacity:1;stroke:#000000;stroke-width:7"
             id="path3608"
             d="M 71.459473,553.5 C 34.080566,553.5 3.5,522.91895 3.5,485.54004 L 3.5,71.459473 C 3.5,34.082031 34.080566,3.5 71.459473,3.5 l 414.080567,0 C 522.91797,3.5 553.5,34.082031 553.5,71.459473 l 0,414.080567 C 553.5,522.91895 522.91797,553.5 485.54004,553.5 l -414.080567,0 z" />
          <circle
             sodipodi:ry="57.115234"
             sodipodi:rx="57.115234"
             sodipodi:cy="439.97461"
             sodipodi:cx="117.02637"
             d="m 174.1416,439.97461 c 0,31.54387 -25.57136,57.11523 -57.11523,57.11523 -31.543876,0 -57.115237,-25.57136 -57.115237,-57.11523 0,-31.54387 25.571361,-57.11524 57.115237,-57.11524 31.54387,0 57.11523,25.57137 57.11523,57.11524 z"
             style="fill:#404040;fill-opacity:1;stroke:#000000;stroke-width:5;stroke-opacity:1"
             id="circle3610"
             r="57.115234"
             cy="439.97461"
             cx="117.02637" />
          <circle
             sodipodi:ry="57.114746"
             sodipodi:rx="57.114746"
             sodipodi:cy="117.02588"
             sodipodi:cx="439.97314"
             d="m 497.08789,117.02588 c 0,31.5436 -25.57114,57.11474 -57.11475,57.11474 -31.5436,0 -57.11474,-25.57114 -57.11474,-57.11474 0,-31.543604 25.57114,-57.114747 57.11474,-57.114747 31.54361,0 57.11475,25.571143 57.11475,57.114747 z"
             style="fill:#404040;fill-opacity:1;stroke:#000000;stroke-width:5;stroke-opacity:1"
             id="circle3614"
             r="57.114746"
             cy="117.02588"
             cx="439.97314" />
        </g>
        <g
           style="overflow:visible"
           id="g3620"
           transform="matrix(0.1917306,0.3313563,-0.3828283,-3.653872e-4,852.73494,500.43371)">
          <path
             inkscape:connector-curvature="0"
             style="fill:#ffffff;fill-opacity:1;stroke:#000000;stroke-width:7"
             id="path3622"
             d="M 71.459473,553.5 C 34.080566,553.5 3.5,522.91895 3.5,485.54004 L 3.5,71.459473 C 3.5,34.082031 34.080566,3.5 71.459473,3.5 l 414.080567,0 C 522.91797,3.5 553.5,34.082031 553.5,71.459473 l 0,414.080567 C 553.5,522.91895 522.91797,553.5 485.54004,553.5 l -414.080567,0 z" />
          <circle
             sodipodi:ry="57.115234"
             sodipodi:rx="57.115234"
             sodipodi:cy="439.97461"
             sodipodi:cx="117.02637"
             d="m 174.1416,439.97461 c 0,31.54387 -25.57136,57.11523 -57.11523,57.11523 -31.543876,0 -57.115237,-25.57136 -57.115237,-57.11523 0,-31.54387 25.571361,-57.11524 57.115237,-57.11524 31.54387,0 57.11523,25.57137 57.11523,57.11524 z"
             style="fill:#404040;fill-opacity:1;stroke:#000000;stroke-width:5;stroke-opacity:1"
             id="circle3624"
             r="57.115234"
             cy="439.97461"
             cx="117.02637" />
          <circle
             sodipodi:ry="57.114746"
             sodipodi:rx="57.114746"
             sodipodi:cy="117.02588"
             sodipodi:cx="439.97314"
             d="m 497.08789,117.02588 c 0,31.5436 -25.57114,57.11474 -57.11475,57.11474 -31.5436,0 -57.11474,-25.57114 -57.11474,-57.11474 0,-31.543604 25.57114,-57.114747 57.11474,-57.114747 31.54361,0 57.11475,25.571143 57.11475,57.114747 z"
             style="fill:#404040;fill-opacity:1;stroke:#000000;stroke-width:5;stroke-opacity:1"
             id="circle3628"
             r="57.114746"
             cy="117.02588"
             cx="439.97314" />
          <circle
             sodipodi:ry="57.115234"
             sodipodi:rx="57.115234"
             sodipodi:cy="278.5"
             sodipodi:cx="278.5"
             d="m 335.61523,278.5 c 0,31.54387 -25.57136,57.11523 -57.11523,57.11523 -31.54387,0 -57.11523,-25.57136 -57.11523,-57.11523 0,-31.54387 25.57136,-57.11523 57.11523,-57.11523 31.54387,0 57.11523,25.57136 57.11523,57.11523 z"
             style="fill:#404040;fill-opacity:1;stroke:#000000;stroke-width:5;stroke-opacity:1"
             id="circle3630"
             r="57.115234"
             cy="278.5"
             cx="278.5" />
        </g>
      </g>
    </g>
    <path
       inkscape:connector-curvature="0"
       id="path3024"
       d="m 277.86775,537.37829 c -6.65478,-2.03161 -13.58063,-5.88242 -95.25949,-52.96469 -42.98891,-24.78014 -80.17675,-46.97616 -82.639658,-49.32447 -5.200407,-4.95845 -5.840829,-11.43942 -1.628367,-16.47882 3.356485,-4.0154 167.644155,-98.93449 176.882605,-102.19597 7.82104,-2.76108 27.57698,-2.78119 35.21227,-0.0359 8.51995,3.06345 168.95689,95.64102 174.41119,100.64119 5.48745,5.03058 6.25293,12.21021 1.85959,17.4413 -3.88673,4.62784 -168.76899,99.45085 -177.75086,102.22367 -7.66939,2.36764 -24.38243,2.74055 -31.08728,0.69363 z m 37.88105,-96.68144 c 9.74855,-5.71303 12.73153,-13.27993 8.25514,-20.94074 -4.61954,-7.90582 -13.79872,-11.83665 -29.1869,-12.49884 -10.87125,-0.46782 -14.6567,0.0702 -21.64473,3.07639 -9.97429,4.29083 -13.2166,8.28164 -13.2166,16.26768 0,4.31974 1.22776,7.02276 4.70151,10.35084 7.24066,6.93697 15.41261,9.25721 30.45838,8.64794 10.75418,-0.43548 14.54785,-1.33702 20.6332,-4.90327 l 0,0 z"
       style="fill:#ffffff" />
    <path
       inkscape:connector-curvature="0"
       id="path3026"
       d="m 275.4252,787.38364 c -2.6868,-1.17247 -41.88975,-23.49797 -87.11766,-49.61226 -90.263713,-52.11761 -94.189819,-54.95397 -100.902637,-72.89557 -3.320596,-8.8751 -3.489586,-12.76017 -4.445557,-102.2031 -0.54656,-51.13752 -0.474346,-97.09649 0.160477,-102.13106 1.369382,-10.86009 5.435155,-16.08594 12.515066,-16.08594 6.327201,0 2.426981,-2.10684 94.301021,50.93996 84.39134,48.7264 91.03757,53.39649 98.99307,69.55923 l 4.40826,8.95603 0,103.76294 c 0,101.63336 -0.0669,103.82723 -3.25673,106.89499 -4.60787,4.43146 -9.01211,5.27735 -14.65531,2.81478 z m -4.76678,-34.041 c 10.25192,-8.81835 5.53719,-31.9978 -9.69315,-47.65532 -13.0686,-13.43514 -26.04514,-13.93837 -31.3608,-1.2162 -6.06489,14.51532 6.12977,41.04218 22.61987,49.20463 8.87914,4.39511 13.02428,4.32021 18.43408,-0.33311 z M 144.30019,534.05734 c 12.81651,-12.81649 -1.06319,-48.33313 -22.01532,-56.33483 -12.92517,-4.93616 -20.51343,1.15706 -20.51343,16.47188 0,20.42897 17.68464,42.78415 34.02125,43.00631 3.17539,0.0432 6.57827,-1.21412 8.5075,-3.14336 z"
       style="fill:#ffffff" />
    <path
       inkscape:connector-curvature="0"
       id="path3028"
       d="m 302.95273,779.72818 c -2.98204,-3.29539 -3.10202,-7.43619 -3.10202,-107.06517 l 0,-103.63718 4.53044,-9.22397 c 8.73595,-17.78638 4.24772,-14.851 158.1645,-103.44229 31.03493,-17.86306 37.05615,-19.76963 43.15965,-13.66612 1.94815,1.94814 3.57315,6.69521 4.31995,12.61985 0.65841,5.22335 0.74993,51.33679 0.20336,102.47431 -0.95598,89.44293 -1.12496,93.328 -4.44556,102.20309 -6.71233,17.94032 -10.44617,20.62359 -103.34518,74.26747 -90.49582,52.25616 -92.51084,53.17715 -99.48514,45.47001 z m 37.87192,-30.8959 c 16.52299,-7.99865 28.84909,-34.67024 22.75883,-49.24625 -5.31566,-12.72219 -18.2922,-12.21895 -31.36079,1.21619 -16.7503,17.22012 -20.40273,42.59263 -7.10019,49.3234 5.52433,2.79517 7.61155,2.62325 15.70215,-1.29334 l 0,0 z m 63.85191,-109.68123 c 6.55195,-3.38814 16.19863,-14.66117 20.05873,-23.44046 4.84206,-11.01264 4.69093,-25.07308 -0.32691,-30.41435 -5.21708,-5.55331 -14.95719,-5.54336 -23.14982,0.0237 -10.84413,7.36877 -20.80365,25.73803 -20.80365,38.37004 0,6.96349 3.44578,15.32408 6.8863,16.70837 4.14163,1.66637 12.92274,1.03457 17.33535,-1.24728 l 0,0 z m 63.58945,-109.95863 c 12.40371,-6.3279 23.15051,-24.84223 23.15051,-39.88313 0,-10.03673 -2.34519,-14.67391 -8.76615,-17.33358 -14.52281,-6.01554 -38.6294,19.78177 -38.67323,41.38558 -0.0344,16.97072 9.66414,23.29211 24.28887,15.83113 l 0,0 z"
       style="fill:#ffffff" />
  </g>
</svg>
