<?xml version="1.0" encoding="UTF-8" standalone="no"?>
<svg
   xmlns:dc="http://purl.org/dc/elements/1.1/"
   xmlns:cc="http://creativecommons.org/ns#"
   xmlns:rdf="http://www.w3.org/1999/02/22-rdf-syntax-ns#"
   xmlns:svg="http://www.w3.org/2000/svg"
   xmlns="http://www.w3.org/2000/svg"
   xmlns:sodipodi="http://sodipodi.sourceforge.net/DTD/sodipodi-0.dtd"
   xmlns:inkscape="http://www.inkscape.org/namespaces/inkscape"
   version="1.1"
   x="0"
   y="0"
   width="864"
   height="864"
   id="svg2"
   inkscape:version="0.48.3.1 r9886"
   sodipodi:docname="ic_launcher_dice.svg">
  <metadata
     id="metadata39">
    <rdf:RDF>
      <cc:Work
         rdf:about="">
        <dc:format>image/svg+xml</dc:format>
        <dc:type
           rdf:resource="http://purl.org/dc/dcmitype/StillImage" />
      </cc:Work>
    </rdf:RDF>
  </metadata>
  <sodipodi:namedview
     pagecolor="#ffffff"
     bordercolor="#666666"
     borderopacity="1"
     objecttolerance="10"
     gridtolerance="10"
     guidetolerance="10"
     inkscape:pageopacity="0"
     inkscape:pageshadow="2"
     inkscape:window-width="982"
     inkscape:window-height="750"
     id="namedview37"
     showgrid="false"
     showguides="true"
     inkscape:guide-bbox="true"
     inkscape:zoom="0.65186406"
     inkscape:cx="407.4914"
     inkscape:cy="455.12802"
     inkscape:window-x="724"
     inkscape:window-y="221"
     inkscape:window-maximized="0"
     inkscape:current-layer="svg2">
    <sodipodi:guide
       orientation="0,1"
       position="112.81356,73.762712"
       id="guide3016" />
    <sodipodi:guide
       orientation="1,0"
       position="71.59322,826.57627"
       id="guide3018" />
    <sodipodi:guide
       orientation="1,0"
       position="791.86441,835.25424"
       id="guide3020" />
    <sodipodi:guide
       orientation="0,1"
       position="8.6779661,791.86441"
       id="guide3022" />
  </sodipodi:namedview>
  <defs
     id="defs4" />
  <g
     transform="matrix(1.1136007,0,0,1.1136007,162.95732,-278.02111)"
     id="g3674">
    <path
       d="M 245,341.5 C 252.5,329 270,314 282.5,314 l 275,155 c 5,5 17.5,37.5 7.5,50 L 292.5,679 c -7.5,2.5 -40,0 -50,-25 L 245,341.5 z"
       id="path3586"
       style="fill:#404040;fill-opacity:1;fill-rule:evenodd;stroke:#404040;stroke-width:2;stroke-linecap:round;stroke-linejoin:round;stroke-miterlimit:4;stroke-opacity:1;stroke-dasharray:none"
       inkscape:connector-curvature="0" />
    <g
       transform="matrix(0.1910977,-0.3317217,0.1910977,0.3317217,152.64427,500.07482)"
       id="g3515"
       style="overflow:visible">
      <path
         d="M 71.459473,553.5 C 34.080566,553.5 3.5,522.91895 3.5,485.54004 L 3.5,71.459473 C 3.5,34.082031 34.080566,3.5 71.459473,3.5 l 414.080567,0 C 522.91797,3.5 553.5,34.082031 553.5,71.459473 l 0,414.080567 C 553.5,522.91895 522.91797,553.5 485.54004,553.5 l -414.080567,0 z"
         id="path3491"
         style="fill:#ffffff;fill-opacity:1;stroke:#000000;stroke-width:7"
         inkscape:connector-curvature="0" />
      <circle
         cx="278.5"
         cy="278.5"
         r="57.115234"
         id="circle3493"
         style="fill:#404040;fill-opacity:1;stroke:#000000;stroke-width:5;stroke-opacity:1"
         d="m 335.61523,278.5 c 0,31.54387 -25.57136,57.11523 -57.11523,57.11523 -31.54387,0 -57.11523,-25.57136 -57.11523,-57.11523 0,-31.54387 25.57136,-57.11523 57.11523,-57.11523 31.54387,0 57.11523,25.57136 57.11523,57.11523 z"
         sodipodi:cx="278.5"
         sodipodi:cy="278.5"
         sodipodi:rx="57.115234"
         sodipodi:ry="57.115234" />
    </g>
    <g
       transform="matrix(-0.3828283,3.653872e-4,0.1917306,-0.3313563,472.998,680.25529)"
       id="g3558"
       style="overflow:visible">
      <path
         d="M 71.459473,553.5 C 34.080566,553.5 3.5,522.91895 3.5,485.54004 L 3.5,71.459473 C 3.5,34.082031 34.080566,3.5 71.459473,3.5 l 414.080567,0 C 522.91797,3.5 553.5,34.082031 553.5,71.459473 l 0,414.080567 C 553.5,522.91895 522.91797,553.5 485.54004,553.5 l -414.080567,0 z"
         id="path3566"
         style="fill:#ffffff;fill-opacity:1;stroke:#000000;stroke-width:7"
         inkscape:connector-curvature="0" />
      <circle
         cx="117.02637"
         cy="439.97461"
         r="57.115234"
         id="circle3560"
         style="fill:#404040;fill-opacity:1;stroke:#000000;stroke-width:5;stroke-opacity:1"
         d="m 174.1416,439.97461 c 0,31.54387 -25.57136,57.11523 -57.11523,57.11523 -31.543876,0 -57.115237,-25.57136 -57.115237,-57.11523 0,-31.54387 25.571361,-57.11524 57.115237,-57.11524 31.54387,0 57.11523,25.57137 57.11523,57.11524 z"
         sodipodi:cx="117.02637"
         sodipodi:cy="439.97461"
         sodipodi:rx="57.115234"
         sodipodi:ry="57.115234" />
      <circle
         cx="439.97461"
         cy="439.97461"
         r="57.115234"
         id="circle3562"
         style="fill:#404040;fill-opacity:1;stroke:#000000;stroke-width:5;stroke-opacity:1"
         d="m 497.08984,439.97461 c 0,31.54387 -25.57136,57.11523 -57.11523,57.11523 -31.54387,0 -57.11524,-25.57136 -57.11524,-57.11523 0,-31.54387 25.57137,-57.11524 57.11524,-57.11524 31.54387,0 57.11523,25.57137 57.11523,57.11524 z"
         sodipodi:cx="439.97461"
         sodipodi:cy="439.97461"
         sodipodi:rx="57.115234"
         sodipodi:ry="57.115234" />
      <circle
         cx="439.97314"
         cy="117.02588"
         r="57.114746"
         id="circle3564"
         style="fill:#404040;fill-opacity:1;stroke:#000000;stroke-width:5;stroke-opacity:1"
         d="m 497.08789,117.02588 c 0,31.5436 -25.57114,57.11474 -57.11475,57.11474 -31.5436,0 -57.11474,-25.57114 -57.11474,-57.11474 0,-31.543604 25.57114,-57.114747 57.11474,-57.114747 31.54361,0 57.11475,25.571143 57.11475,57.114747 z"
         sodipodi:cx="439.97314"
         sodipodi:cy="117.02588"
         sodipodi:rx="57.114746"
         sodipodi:ry="57.114746" />
      <circle
         cx="278.5"
         cy="278.5"
         r="57.115234"
         id="circle3568"
         style="fill:#404040;fill-opacity:1;stroke:#000000;stroke-width:5;stroke-opacity:1"
         d="m 335.61523,278.5 c 0,31.54387 -25.57136,57.11523 -57.11523,57.11523 -31.54387,0 -57.11523,-25.57136 -57.11523,-57.11523 0,-31.54387 25.57136,-57.11523 57.11523,-57.11523 31.54387,0 57.11523,25.57136 57.11523,57.11523 z"
         sodipodi:cx="278.5"
         sodipodi:cy="278.5"
         sodipodi:rx="57.115234"
         sodipodi:ry="57.115234" />
      <circle
         cx="117.02588"
         cy="117.02563"
         r="57.115479"
         id="circle3570"
         style="fill:#404040;fill-opacity:1;stroke:#000000;stroke-width:5;stroke-opacity:1"
         d="m 174.14136,117.02563 c 0,31.544 -25.57147,57.11548 -57.11548,57.11548 -31.544009,0 -57.11548,-25.57148 -57.11548,-57.11548 0,-31.544011 25.571471,-57.115481 57.11548,-57.115481 31.54401,0 57.11548,25.57147 57.11548,57.115481 z"
         sodipodi:cx="117.02588"
         sodipodi:cy="117.02563"
         sodipodi:rx="57.115479"
         sodipodi:ry="57.115479" />
    </g>
    <g
       transform="matrix(0.1917306,0.3313563,-0.3828283,-3.653872e-4,468.80258,313.31549)"
       id="g3572"
       style="overflow:visible">
      <path
         d="M 71.459473,553.5 C 34.080566,553.5 3.5,522.91895 3.5,485.54004 L 3.5,71.459473 C 3.5,34.082031 34.080566,3.5 71.459473,3.5 l 414.080567,0 C 522.91797,3.5 553.5,34.082031 553.5,71.459473 l 0,414.080567 C 553.5,522.91895 522.91797,553.5 485.54004,553.5 l -414.080567,0 z"
         id="path3580"
         style="fill:#ffffff;fill-opacity:1;stroke:#000000;stroke-width:7"
         inkscape:connector-curvature="0" />
      <circle
         cx="117.02637"
         cy="439.97461"
         r="57.115234"
         id="circle3574"
         style="fill:#404040;fill-opacity:1;stroke:#000000;stroke-width:5;stroke-opacity:1"
         d="m 174.1416,439.97461 c 0,31.54387 -25.57136,57.11523 -57.11523,57.11523 -31.543876,0 -57.115237,-25.57136 -57.115237,-57.11523 0,-31.54387 25.571361,-57.11524 57.115237,-57.11524 31.54387,0 57.11523,25.57137 57.11523,57.11524 z"
         sodipodi:cx="117.02637"
         sodipodi:cy="439.97461"
         sodipodi:rx="57.115234"
         sodipodi:ry="57.115234" />
      <circle
         cx="439.97461"
         cy="439.97461"
         r="57.115234"
         id="circle3576"
         style="fill:#404040;fill-opacity:1;stroke:#000000;stroke-width:5;stroke-opacity:1"
         d="m 497.08984,439.97461 c 0,31.54387 -25.57136,57.11523 -57.11523,57.11523 -31.54387,0 -57.11524,-25.57136 -57.11524,-57.11523 0,-31.54387 25.57137,-57.11524 57.11524,-57.11524 31.54387,0 57.11523,25.57137 57.11523,57.11524 z"
         sodipodi:cx="439.97461"
         sodipodi:cy="439.97461"
         sodipodi:rx="57.115234"
         sodipodi:ry="57.115234" />
      <circle
         cx="439.97314"
         cy="117.02588"
         r="57.114746"
         id="circle3578"
         style="fill:#404040;fill-opacity:1;stroke:#000000;stroke-width:5;stroke-opacity:1"
         d="m 497.08789,117.02588 c 0,31.5436 -25.57114,57.11474 -57.11475,57.11474 -31.5436,0 -57.11474,-25.57114 -57.11474,-57.11474 0,-31.543604 25.57114,-57.114747 57.11474,-57.114747 31.54361,0 57.11475,25.571143 57.11475,57.114747 z"
         sodipodi:cx="439.97314"
         sodipodi:cy="117.02588"
         sodipodi:rx="57.114746"
         sodipodi:ry="57.114746" />
      <circle
         cx="117.02588"
         cy="117.02563"
         r="57.115479"
         id="circle3584"
         style="fill:#404040;fill-opacity:1;stroke:#000000;stroke-width:5;stroke-opacity:1"
         d="m 174.14136,117.02563 c 0,31.544 -25.57147,57.11548 -57.11548,57.11548 -31.544009,0 -57.11548,-25.57148 -57.11548,-57.11548 0,-31.544011 25.571471,-57.115481 57.11548,-57.115481 31.54401,0 57.11548,25.57147 57.11548,57.115481 z"
         sodipodi:cx="117.02588"
         sodipodi:cy="117.02563"
         sodipodi:rx="57.115479"
         sodipodi:ry="57.115479" />
    </g>
  </g>
  <g
     transform="matrix(1.1136007,0,0,1.1136007,-603.7768,310.62655)"
     id="g3658">
    <g
       transform="matrix(0,1,-1,0,1481.1182,-519.93236)"
       id="g3634">
      <path
         d="m 628.93236,528.61822 c 7.5,-12.5 25,-27.5 37.5,-27.5 l 278.6825,160.82693 c 4.11647,6.65796 12.40666,21.07873 5.29642,41.57018 L 676.43236,866.11822 c -7.5,2.5 -40,0 -50,-25 l 2.5,-312.5 z"
         id="path3590"
         style="fill:#404040;fill-opacity:1;fill-rule:evenodd;stroke:#404040;stroke-width:2;stroke-linecap:round;stroke-linejoin:round;stroke-miterlimit:4;stroke-opacity:1;stroke-dasharray:none"
         inkscape:connector-curvature="0" />
      <g
         transform="matrix(0.1910977,-0.3317217,0.1910977,0.3317217,536.57663,687.19304)"
         id="g3592"
         style="overflow:visible">
        <path
           d="M 71.459473,553.5 C 34.080566,553.5 3.5,522.91895 3.5,485.54004 L 3.5,71.459473 C 3.5,34.082031 34.080566,3.5 71.459473,3.5 l 414.080567,0 C 522.91797,3.5 553.5,34.082031 553.5,71.459473 l 0,414.080567 C 553.5,522.91895 522.91797,553.5 485.54004,553.5 l -414.080567,0 z"
           id="path3594"
           style="fill:#ffffff;fill-opacity:1;stroke:#000000;stroke-width:7"
           inkscape:connector-curvature="0" />
        <circle
           cx="278.5"
           cy="278.5"
           r="57.115234"
           id="circle3602"
           style="fill:#404040;fill-opacity:1;stroke:#000000;stroke-width:5;stroke-opacity:1"
           d="m 335.61523,278.5 c 0,31.54387 -25.57136,57.11523 -57.11523,57.11523 -31.54387,0 -57.11523,-25.57136 -57.11523,-57.11523 0,-31.54387 25.57136,-57.11523 57.11523,-57.11523 31.54387,0 57.11523,25.57136 57.11523,57.11523 z"
           sodipodi:cx="278.5"
           sodipodi:cy="278.5"
           sodipodi:rx="57.115234"
           sodipodi:ry="57.115234" />
      </g>
      <g
         transform="matrix(-0.3828283,3.653872e-4,0.1917306,-0.3313563,856.93036,867.37351)"
         id="g3606"
         style="overflow:visible">
        <path
           d="M 71.459473,553.5 C 34.080566,553.5 3.5,522.91895 3.5,485.54004 L 3.5,71.459473 C 3.5,34.082031 34.080566,3.5 71.459473,3.5 l 414.080567,0 C 522.91797,3.5 553.5,34.082031 553.5,71.459473 l 0,414.080567 C 553.5,522.91895 522.91797,553.5 485.54004,553.5 l -414.080567,0 z"
           id="path3608"
           style="fill:#ffffff;fill-opacity:1;stroke:#000000;stroke-width:7"
           inkscape:connector-curvature="0" />
        <circle
           cx="117.02637"
           cy="439.97461"
           r="57.115234"
           id="circle3610"
           style="fill:#404040;fill-opacity:1;stroke:#000000;stroke-width:5;stroke-opacity:1"
           d="m 174.1416,439.97461 c 0,31.54387 -25.57136,57.11523 -57.11523,57.11523 -31.543876,0 -57.115237,-25.57136 -57.115237,-57.11523 0,-31.54387 25.571361,-57.11524 57.115237,-57.11524 31.54387,0 57.11523,25.57137 57.11523,57.11524 z"
           sodipodi:cx="117.02637"
           sodipodi:cy="439.97461"
           sodipodi:rx="57.115234"
           sodipodi:ry="57.115234" />
        <circle
           cx="439.97314"
           cy="117.02588"
           r="57.114746"
           id="circle3614"
           style="fill:#404040;fill-opacity:1;stroke:#000000;stroke-width:5;stroke-opacity:1"
           d="m 497.08789,117.02588 c 0,31.5436 -25.57114,57.11474 -57.11475,57.11474 -31.5436,0 -57.11474,-25.57114 -57.11474,-57.11474 0,-31.543604 25.57114,-57.114747 57.11474,-57.114747 31.54361,0 57.11475,25.571143 57.11475,57.114747 z"
           sodipodi:cx="439.97314"
           sodipodi:cy="117.02588"
           sodipodi:rx="57.114746"
           sodipodi:ry="57.114746" />
      </g>
      <g
         transform="matrix(0.1917306,0.3313563,-0.3828283,-3.653872e-4,852.73494,500.43371)"
         id="g3620"
         style="overflow:visible">
        <path
           d="M 71.459473,553.5 C 34.080566,553.5 3.5,522.91895 3.5,485.54004 L 3.5,71.459473 C 3.5,34.082031 34.080566,3.5 71.459473,3.5 l 414.080567,0 C 522.91797,3.5 553.5,34.082031 553.5,71.459473 l 0,414.080567 C 553.5,522.91895 522.91797,553.5 485.54004,553.5 l -414.080567,0 z"
           id="path3622"
           style="fill:#ffffff;fill-opacity:1;stroke:#000000;stroke-width:7"
           inkscape:connector-curvature="0" />
        <circle
           cx="117.02637"
           cy="439.97461"
           r="57.115234"
           id="circle3624"
           style="fill:#404040;fill-opacity:1;stroke:#000000;stroke-width:5;stroke-opacity:1"
           d="m 174.1416,439.97461 c 0,31.54387 -25.57136,57.11523 -57.11523,57.11523 -31.543876,0 -57.115237,-25.57136 -57.115237,-57.11523 0,-31.54387 25.571361,-57.11524 57.115237,-57.11524 31.54387,0 57.11523,25.57137 57.11523,57.11524 z"
           sodipodi:cx="117.02637"
           sodipodi:cy="439.97461"
           sodipodi:rx="57.115234"
           sodipodi:ry="57.115234" />
        <circle
           cx="439.97314"
           cy="117.02588"
           r="57.114746"
           id="circle3628"
           style="fill:#404040;fill-opacity:1;stroke:#000000;stroke-width:5;stroke-opacity:1"
           d="m 497.08789,117.02588 c 0,31.5436 -25.57114,57.11474 -57.11475,57.11474 -31.5436,0 -57.11474,-25.57114 -57.11474,-57.11474 0,-31.543604 25.57114,-57.114747 57.11474,-57.114747 31.54361,0 57.11475,25.571143 57.11475,57.114747 z"
           sodipodi:cx="439.97314"
           sodipodi:cy="117.02588"
           sodipodi:rx="57.114746"
           sodipodi:ry="57.114746" />
        <circle
           cx="278.5"
           cy="278.5"
           r="57.115234"
           id="circle3630"
           style="fill:#404040;fill-opacity:1;stroke:#000000;stroke-width:5;stroke-opacity:1"
           d="m 335.61523,278.5 c 0,31.54387 -25.57136,57.11523 -57.11523,57.11523 -31.54387,0 -57.11523,-25.57136 -57.11523,-57.11523 0,-31.54387 25.57136,-57.11523 57.11523,-57.11523 31.54387,0 57.11523,25.57136 57.11523,57.11523 z"
           sodipodi:cx="278.5"
           sodipodi:cy="278.5"
           sodipodi:rx="57.115234"
           sodipodi:ry="57.115234" />
      </g>
    </g>
  </g>
</svg>
